<?xml version="1.0" encoding="UTF-8" standalone="no"?>
<svg width="400" height="400" viewBox="0 0 400 400" xmlns="http://www.w3.org/2000/svg">
  <!-- Background Circle -->
  <circle cx="200" cy="200" r="180" fill="#FFF5E6"/>
  
  <!-- Coffee Bean at Bottom -->
  <path d="M200 340 C180 340, 170 330, 170 320 C170 310, 180 300, 200 300 C220 300, 230 310, 230 320 C230 330, 220 340, 200 340" fill="#4A2C2A"/>
  
  <!-- Coffee Cup -->
  <path d="M160 180 C140 180, 130 200, 130 220 C130 260, 160 280, 200 280 C240 280, 270 260, 270 220 C270 200, 260 180, 240 180 Z" fill="#4A2C2A"/>
  <!-- Cup Highlight -->
  <path d="M150 200 L160 190 L240 190 L250 200" fill="none" stroke="#FFFFFF" stroke-width="2"/>
  
  <!-- Coffee Bean in Cup -->
  <path d="M180 220 C170 220, 165 215, 165 210 C165 205, 170 200, 180 200 C190 200, 195 205, 195 210 C195 215, 190 220, 180 220" fill="#6F4E37"/>
  
  <!-- Banner -->
  <path d="M50 180 C50 160, 350 160, 350 180 C350 200, 50 200, 50 180" fill="#2E7D32"/>
  <text x="200" y="195" font-family="Arial" font-size="36" fill="white" text-anchor="middle">COFFEE SONG</text>
</svg>
